<?xml version="1.0" standalone="no"?>
<!DOCTYPE svg PUBLIC "-//W3C//DTD SVG 20010904//EN"
 "http://www.w3.org/TR/2001/REC-SVG-20010904/DTD/svg10.dtd">
<svg version="1.0" xmlns="http://www.w3.org/2000/svg"
 width="220.000000pt" height="220.000000pt" viewBox="0 0 220.000000 220.000000"
 preserveAspectRatio="xMidYMid meet">
<metadata>
Created by potrace 1.15, written by Peter Selinger 2001-2017
</metadata>
<g id="logo" transform="translate(0.000000,220.000000) scale(0.100000,-0.100000)"
fill="#000000" stroke="none">
<path d="M946 2149 c-148 -22 -312 -85 -437 -169 -88 -60 -219 -189 -280 -277
-323 -467 -220 -1112 232 -1453 209 -157 459 -228 735 -209 505 36 927 458
963 963 14 209 -19 388 -105 563 -201 413 -651 649 -1108 582z m568 -791 l220
-3 -44 -32 -44 -33 -328 0 c-180 0 -328 2 -328 4 0 1 5 17 11 35 l11 31 99 0
c69 0 99 4 99 12 0 6 -32 111 -71 232 -73 225 -76 245 -48 311 11 29 16 16
107 -262 l96 -293 220 -2z m-758 249 c100 -137 129 -185 121 -195 -14 -17 -12
-20 -162 187 -95 130 -123 176 -113 182 7 5 15 9 18 8 3 0 64 -82 136 -182z
m849 164 c0 -7 -58 -93 -129 -191 -86 -118 -134 -176 -143 -173 -8 3 -12 12
-9 20 3 7 63 92 132 189 114 157 149 193 149 155z m-616 -403 c-55 -169 -103
-308 -107 -308 -4 0 -18 9 -32 20 l-25 19 32 95 31 96 -245 0 -244 0 -47 33
-47 32 304 5 304 5 61 190 c83 256 75 240 97 176 l19 -54 -101 -309z m910 -12
c-2 -2 -107 -79 -234 -171 -126 -92 -235 -172 -241 -178 -9 -9 5 -63 56 -219
37 -115 65 -208 63 -208 -3 0 -24 14 -49 31 -38 28 -46 41 -68 108 -14 42 -59
181 -100 308 -42 128 -76 235 -76 238 0 4 17 5 37 3 l37 -3 30 -92 c17 -51 33
-93 37 -93 4 0 94 63 200 140 l193 140 60 0 c33 0 57 -2 55 -4z m-1086 -280
l267 -194 -27 -22 c-15 -11 -32 -19 -38 -16 -7 2 -45 28 -84 57 -39 28 -73 50
-75 48 -2 -2 -37 -107 -79 -233 -74 -229 -74 -229 -118 -262 -24 -18 -45 -31
-47 -29 -2 2 37 129 87 283 50 154 91 284 91 288 0 5 -79 65 -175 134 -96 69
-174 128 -174 133 -1 4 23 7 52 7 l53 0 267 -194z m504 -101 l11 -35 -79 -57
c-43 -31 -79 -59 -79 -62 1 -3 89 -70 198 -148 l197 -143 16 -55 c10 -34 12
-52 5 -48 -6 4 -116 83 -244 176 -134 97 -238 167 -246 164 -8 -3 -89 -60
-181 -127 -92 -67 -169 -119 -171 -118 -2 2 4 26 12 54 16 48 20 52 278 241
143 105 264 192 267 192 3 1 10 -15 16 -34z m-579 -2 c2 -7 -2 -15 -10 -17 -7
-3 -105 -35 -217 -71 -161 -53 -205 -64 -212 -53 -4 7 -5 16 -1 20 11 10 406
137 421 135 8 -1 16 -8 19 -14z m963 -50 c190 -61 229 -80 201 -97 -4 -2 -102
26 -217 63 -153 49 -211 72 -213 84 -2 9 2 17 8 17 6 0 106 -30 221 -67z
m-581 -443 c0 -223 -1 -230 -20 -230 -19 0 -20 7 -20 230 0 223 1 230 20 230
19 0 20 -7 20 -230z"/>
</g>
</svg>
