<svg aria-hidden="true" style="position: absolute; width: 0; height: 0; overflow: hidden;" version="1.1" xmlns="http://www.w3.org/2000/svg" xmlns:xlink="http://www.w3.org/1999/xlink">
<defs>
<symbol id="icon-arrow_drop_down" viewBox="0 0 24 24">
<title>Download</title>
<path d="M6.984 9.984h10.031l-5.016 5.016z"></path>
</symbol>
<symbol id="icon-navigate_before" viewBox="0 0 24 24">
<title>Previous</title>
<path d="M15.422 7.406l-4.594 4.594 4.594 4.594-1.406 1.406-6-6 6-6z"></path>
</symbol>
<symbol id="icon-navigate_next" viewBox="0 0 24 24">
<title>Next</title>
<path d="M9.984 6l6 6-6 6-1.406-1.406 4.594-4.594-4.594-4.594z"></path>
</symbol>
<symbol id="icon-cloud_download" viewBox="0 0 24 24">
<title>Download</title>
<path d="M17.016 12.984h-3v-3.984h-4.031v3.984h-3l5.016 5.016zM19.359 10.031c2.578 0.188 4.641 2.344 4.641 4.969 0 2.766-2.25 5.016-5.016 5.016h-12.984c-3.328 0-6-2.672-6-6 0-3.094 2.344-5.625 5.344-5.953 1.266-2.391 3.75-4.078 6.656-4.078 3.656 0 6.656 2.578 7.359 6.047z"></path>
</symbol>
<symbol id="icon-first_page" viewBox="0 0 24 24">
<title>First Page</title>
<path d="M6 6h2.016v12h-2.016v-12zM18.422 16.594l-1.406 1.406-6-6 6-6 1.406 1.406-4.594 4.594z"></path>
</symbol>
<symbol id="icon-grid_on" viewBox="0 0 24 24">
<title>Table View</title>
<path d="M20.016 8.016v-4.031h-4.031v4.031h4.031zM20.016 14.016v-4.031h-4.031v4.031h4.031zM20.016 20.016v-4.031h-4.031v4.031h4.031zM14.016 8.016v-4.031h-4.031v4.031h4.031zM14.016 14.016v-4.031h-4.031v4.031h4.031zM14.016 20.016v-4.031h-4.031v4.031h4.031zM8.016 8.016v-4.031h-4.031v4.031h4.031zM8.016 14.016v-4.031h-4.031v4.031h4.031zM8.016 20.016v-4.031h-4.031v4.031h4.031zM20.016 2.016c1.078 0 1.969 0.891 1.969 1.969v16.031c0 1.078-0.891 1.969-1.969 1.969h-16.031c-1.078 0-1.969-0.891-1.969-1.969v-16.031c0-1.078 0.891-1.969 1.969-1.969h16.031z"></path>
</symbol>
<symbol id="icon-last_page" viewBox="0 0 24 24">
<title>Last Page</title>
<path d="M15.984 6h2.016v12h-2.016v-12zM5.578 7.406l1.406-1.406 6 6-6 6-1.406-1.406 4.594-4.594z"></path>
</symbol>
<symbol id="icon-print" viewBox="0 0 24 24">
<title>Print</title>
<path d="M18 3v3.984h-12v-3.984h12zM18.984 12c0.563 0 1.031-0.422 1.031-0.984s-0.469-1.031-1.031-1.031-0.984 0.469-0.984 1.031 0.422 0.984 0.984 0.984zM15.984 18.984v-4.969h-7.969v4.969h7.969zM18.984 8.016c1.641 0 3 1.359 3 3v6h-3.984v3.984h-12v-3.984h-3.984v-6c0-1.641 1.359-3 3-3h13.969z"></path>
</symbol>
<symbol id="icon-pin_drop" viewBox="0 0 24 24">
<title>Map View</title>
<path d="M5.016 20.016h13.969v1.969h-13.969v-1.969zM9.984 8.016c0 1.078 0.938 1.969 2.016 1.969 1.125 0 2.016-0.891 2.016-1.969s-0.938-2.016-2.016-2.016-2.016 0.938-2.016 2.016zM18 8.016c0 4.5-6 10.969-6 10.969s-6-6.469-6-10.969c0-3.328 2.672-6 6-6s6 2.672 6 6z"></path>
</symbol>
<symbol id="icon-unfold_more" viewBox="0 0 24 24">
<title>unfold_more</title>
<path d="M12 18.188l3.188-3.188 1.406 1.406-4.594 4.594-4.594-4.594 1.406-1.406zM12 5.813l-3.188 3.188-1.406-1.406 4.594-4.594 4.594 4.594-1.406 1.406z"></path>
</symbol>
<symbol id="icon-download" viewBox="0 0 20 20">
<title>Download</title>
<path d="M15 7h-3v-6h-4v6h-3l5 5 5-5zM19.338 13.532c-0.21-0.224-1.611-1.723-2.011-2.114-0.265-0.259-0.644-0.418-1.042-0.418h-1.757l3.064 2.994h-3.544c-0.102 0-0.194 0.052-0.24 0.133l-0.816 1.873h-5.984l-0.816-1.873c-0.046-0.081-0.139-0.133-0.24-0.133h-3.544l3.063-2.994h-1.756c-0.397 0-0.776 0.159-1.042 0.418-0.4 0.392-1.801 1.891-2.011 2.114-0.489 0.521-0.758 0.936-0.63 1.449l0.561 3.074c0.128 0.514 0.691 0.936 1.252 0.936h16.312c0.561 0 1.124-0.422 1.252-0.936l0.561-3.074c0.126-0.513-0.142-0.928-0.632-1.449z"></path>
</symbol>
<symbol id="icon-location" viewBox="0 0 20 20">
<title>location</title>
<path d="M19.367 18.102l-1.367-4.102h-1.5l0.833 4h-14.666l0.833-4h-1.5l-1.368 4.102c-0.347 1.044 0.268 1.898 1.368 1.898h16c1.1 0 1.715-0.854 1.367-1.898zM15 5c0-2.761-2.238-5-5-5s-5 2.239-5 5c0 4.775 5 10 5 10s5-5.225 5-10zM7.3 5.060c0-1.491 1.208-2.699 2.7-2.699s2.7 1.208 2.7 2.699c0 1.492-1.209 2.7-2.7 2.7s-2.7-1.209-2.7-2.7z"></path>
</symbol>
</defs>
</svg>
