<svg aria-hidden="true" style="position: absolute; width: 0; height: 0; overflow: hidden;" version="1.1" xmlns="http://www.w3.org/2000/svg" xmlns:xlink="http://www.w3.org/1999/xlink">
<defs>
<symbol id="icon-arrow_drop_down" viewBox="0 0 24 24">
<title>arrow_drop_down</title>
<path d="M6.984 9.984h10.031l-5.016 5.016z"></path>
</symbol>
<symbol id="icon-navigate_before" viewBox="0 0 24 24">
<title>navigate_before</title>
<path d="M15.422 7.406l-4.594 4.594 4.594 4.594-1.406 1.406-6-6 6-6z"></path>
</symbol>
<symbol id="icon-navigate_next" viewBox="0 0 24 24">
<title>navigate_next</title>
<path d="M9.984 6l6 6-6 6-1.406-1.406 4.594-4.594-4.594-4.594z"></path>
</symbol>
<symbol id="icon-cloud_download" viewBox="0 0 24 24">
<title>cloud_download</title>
<path d="M17.016 12.984h-3v-3.984h-4.031v3.984h-3l5.016 5.016zM19.359 10.031c2.578 0.188 4.641 2.344 4.641 4.969 0 2.766-2.25 5.016-5.016 5.016h-12.984c-3.328 0-6-2.672-6-6 0-3.094 2.344-5.625 5.344-5.953 1.266-2.391 3.75-4.078 6.656-4.078 3.656 0 6.656 2.578 7.359 6.047z"></path>
</symbol>
<symbol id="icon-filter_list" viewBox="0 0 24 24">
<title>filter_list</title>
<path d="M6 12.984v-1.969h12v1.969h-12zM3 6h18v2.016h-18v-2.016zM9.984 18v-2.016h4.031v2.016h-4.031z"></path>
</symbol>
<symbol id="icon-first_page" viewBox="0 0 24 24">
<title>first_page</title>
<path d="M6 6h2.016v12h-2.016v-12zM18.422 16.594l-1.406 1.406-6-6 6-6 1.406 1.406-4.594 4.594z"></path>
</symbol>
<symbol id="icon-grid_on" viewBox="0 0 24 24">
<title>grid_on</title>
<path d="M20.016 8.016v-4.031h-4.031v4.031h4.031zM20.016 14.016v-4.031h-4.031v4.031h4.031zM20.016 20.016v-4.031h-4.031v4.031h4.031zM14.016 8.016v-4.031h-4.031v4.031h4.031zM14.016 14.016v-4.031h-4.031v4.031h4.031zM14.016 20.016v-4.031h-4.031v4.031h4.031zM8.016 8.016v-4.031h-4.031v4.031h4.031zM8.016 14.016v-4.031h-4.031v4.031h4.031zM8.016 20.016v-4.031h-4.031v4.031h4.031zM20.016 2.016c1.078 0 1.969 0.891 1.969 1.969v16.031c0 1.078-0.891 1.969-1.969 1.969h-16.031c-1.078 0-1.969-0.891-1.969-1.969v-16.031c0-1.078 0.891-1.969 1.969-1.969h16.031z"></path>
</symbol>
<symbol id="icon-last_page" viewBox="0 0 24 24">
<title>last_page</title>
<path d="M15.984 6h2.016v12h-2.016v-12zM5.578 7.406l1.406-1.406 6 6-6 6-1.406-1.406 4.594-4.594z"></path>
</symbol>
<symbol id="icon-print" viewBox="0 0 24 24">
<title>print</title>
<path d="M18 3v3.984h-12v-3.984h12zM18.984 12c0.563 0 1.031-0.422 1.031-0.984s-0.469-1.031-1.031-1.031-0.984 0.469-0.984 1.031 0.422 0.984 0.984 0.984zM15.984 18.984v-4.969h-7.969v4.969h7.969zM18.984 8.016c1.641 0 3 1.359 3 3v6h-3.984v3.984h-12v-3.984h-3.984v-6c0-1.641 1.359-3 3-3h13.969z"></path>
</symbol>
<symbol id="icon-pin_drop" viewBox="0 0 24 24">
<title>pin_drop</title>
<path d="M5.016 20.016h13.969v1.969h-13.969v-1.969zM9.984 8.016c0 1.078 0.938 1.969 2.016 1.969 1.125 0 2.016-0.891 2.016-1.969s-0.938-2.016-2.016-2.016-2.016 0.938-2.016 2.016zM18 8.016c0 4.5-6 10.969-6 10.969s-6-6.469-6-10.969c0-3.328 2.672-6 6-6s6 2.672 6 6z"></path>
</symbol>
<symbol id="icon-unfold_more" viewBox="0 0 24 24">
<title>unfold_more</title>
<path d="M12 18.188l3.188-3.188 1.406 1.406-4.594 4.594-4.594-4.594 1.406-1.406zM12 5.813l-3.188 3.188-1.406-1.406 4.594-4.594 4.594 4.594-1.406 1.406z"></path>
</symbol>
<symbol id="icon-download" viewBox="0 0 20 20">
<title>download</title>
<path d="M15 7h-3v-6h-4v6h-3l5 5 5-5zM19.338 13.532c-0.21-0.224-1.611-1.723-2.011-2.114-0.265-0.259-0.644-0.418-1.042-0.418h-1.757l3.064 2.994h-3.544c-0.102 0-0.194 0.052-0.24 0.133l-0.816 1.873h-5.984l-0.816-1.873c-0.046-0.081-0.139-0.133-0.24-0.133h-3.544l3.063-2.994h-1.756c-0.397 0-0.776 0.159-1.042 0.418-0.4 0.392-1.801 1.891-2.011 2.114-0.489 0.521-0.758 0.936-0.63 1.449l0.561 3.074c0.128 0.514 0.691 0.936 1.252 0.936h16.312c0.561 0 1.124-0.422 1.252-0.936l0.561-3.074c0.126-0.513-0.142-0.928-0.632-1.449z"></path>
</symbol>
<symbol id="icon-flow-tree" viewBox="0 0 20 20">
<title>flow-tree</title>
<path d="M18 14.824v-2.324c0-1.933-1.567-3.5-3.5-3.5h-2c-0.828 0-1.5-0.672-1.5-1.5v-2.324c0.825-0.38 1.4-1.208 1.4-2.176 0-1.326-1.074-2.4-2.4-2.4s-2.4 1.074-2.4 2.4c0 0.967 0.576 1.796 1.4 2.176v2.324c0 0.828-0.672 1.5-1.5 1.5h-2c-1.933 0-3.5 1.567-3.5 3.5v2.324c-0.825 0.38-1.4 1.209-1.4 2.176 0 1.326 1.074 2.4 2.4 2.4s2.4-1.075 2.4-2.4c0-0.967-0.576-1.796-1.4-2.176v-2.324c0-0.828 0.672-1.5 1.5-1.5h2c0.539 0 1.044-0.132 1.5-0.35v4.174c-0.825 0.38-1.4 1.209-1.4 2.176 0 1.326 1.074 2.4 2.4 2.4s2.4-1.075 2.4-2.4c0-0.967-0.576-1.796-1.4-2.176v-4.174c0.456 0.218 0.961 0.35 1.5 0.35h2c0.828 0 1.5 0.672 1.5 1.5v2.324c-0.825 0.38-1.4 1.208-1.4 2.176 0 1.326 1.074 2.4 2.4 2.4s2.4-1.075 2.4-2.4c0-0.967-0.575-1.796-1.4-2.176zM10 1.615c0.764 0 1.384 0.619 1.384 1.385 0 0.764-0.62 1.385-1.384 1.385s-1.384-0.621-1.384-1.385c0-0.766 0.619-1.385 1.384-1.385zM3 18.385c-0.766 0-1.385-0.621-1.385-1.385 0-0.766 0.619-1.385 1.385-1.385 0.764 0 1.384 0.619 1.384 1.385 0 0.764-0.62 1.385-1.384 1.385zM10 18.385c-0.766 0-1.385-0.621-1.385-1.385 0-0.766 0.619-1.385 1.385-1.385 0.764 0 1.384 0.619 1.384 1.385 0 0.764-0.62 1.385-1.384 1.385zM17 18.385c-0.766 0-1.385-0.621-1.385-1.385 0-0.766 0.619-1.385 1.385-1.385 0.764 0 1.384 0.619 1.384 1.385 0 0.764-0.62 1.385-1.384 1.385z"></path>
</symbol>
<symbol id="icon-location" viewBox="0 0 20 20">
<title>location</title>
<path d="M19.367 18.102l-1.367-4.102h-1.5l0.833 4h-14.666l0.833-4h-1.5l-1.368 4.102c-0.347 1.044 0.268 1.898 1.368 1.898h16c1.1 0 1.715-0.854 1.367-1.898zM15 5c0-2.761-2.238-5-5-5s-5 2.239-5 5c0 4.775 5 10 5 10s5-5.225 5-10zM7.3 5.060c0-1.491 1.208-2.699 2.7-2.699s2.7 1.208 2.7 2.699c0 1.492-1.209 2.7-2.7 2.7s-2.7-1.209-2.7-2.7z"></path>
</symbol>
</defs>
</svg>
